<?xml version="1.0" encoding="iso-8859-1"?>
<!-- Uploaded to: SVG Repo, www.svgrepo.com, Generator: SVG Repo Mixer Tools -->
<svg version="1.1" id="Layer_1" xmlns="http://www.w3.org/2000/svg" xmlns:xlink="http://www.w3.org/1999/xlink" 
	 viewBox="0 0 508.497 508.497" xml:space="preserve">
<circle style="fill:#84DBFF;" cx="254.248" cy="255.209" r="217.007"/>
<polygon style="fill:#324A5E;" points="304.092,253.853 254.927,253.853 253.57,253.853 204.405,253.853 201.014,304.036 
	206.1,492.899 234.921,492.899 254.248,338.282 273.576,492.899 302.397,492.899 307.483,304.036 "/>
<polygon style="fill:#2B3B4E;" points="203.387,264.703 202.031,288.099 306.466,288.099 305.109,264.703 "/>
<path style="fill:#CED5E0;" d="M337.66,212.147c0.678,7.799-2.374,15.597-7.799,21.023c-5.086,5.425-12.885,12.207-23.057,18.649
	c-4.747,3.052-10.172,6.103-16.276,9.155l-9.833-27.126l23.057-15.597l10.511-7.121l-8.477-27.126
	c3.73-36.281,11.868-70.527,11.868-70.527S333.252,149.08,337.66,212.147z"/>
<path style="fill:#E6E9EE;" d="M308.161,256.227c-13.902-43.401,9.494-142.75,9.494-142.75
	c-37.298-6.781-44.079-24.413-44.079-24.413h-38.654c0,0-7.121,17.632-44.079,24.413c0,0,23.396,99.348,9.833,142.75
	c0,0-1.017,6.442-2.034,14.919c-0.678,4.069,2.713,7.46,6.442,7.46h98.67c4.069,0,7.121-3.391,6.442-7.46
	C309.178,262.669,308.161,256.227,308.161,256.227z"/>
<path style="fill:#FFD05B;" d="M271.541,102.627V85.673c-5.086-10.172-4.069-21.023-4.069-21.023l-13.224-0.678l0,0l0,0l0,0l0,0
	l-13.224,0.678c0,0,1.017,11.868-4.747,22.379v15.258L271.541,102.627z"/>
<circle style="fill:#2B3B4E;" cx="260.352" cy="249.784" r="4.408"/>
<path style="fill:#F9B54C;" d="M269.168,79.231l-1.017,1.356c-2.374,3.052-5.764,4.747-9.494,5.425h-2.713
	c-1.356,0.339-2.713,0.339-4.069,0l-2.374-0.339c-3.73-0.678-7.121-2.374-9.494-5.425l-1.017-0.678
	c2.374-8.138,1.695-14.919,1.695-14.919l13.224-0.678l0,0l0,0l0,0l0,0l13.224,0.678C267.472,64.65,267.133,71.432,269.168,79.231z"
	/>
<g>
	<path style="fill:#FFD05B;" d="M253.909,21.927h-25.091l4.069,42.045c0.339,3.052,1.356,5.764,3.391,8.138l3.391,4.069
		c2.373,3.052,5.764,4.747,9.494,5.425l2.373,0.339c1.356,0.339,2.713,0.339,4.069,0l2.374-0.339
		c3.73-0.678,7.121-2.374,9.494-5.425l3.391-4.069c2.034-2.374,3.052-5.086,3.391-8.138l4.747-42.045H253.909z"/>
	<path style="fill:#FFD05B;" d="M281.713,46.68c-1.356,3.052-4.069,5.086-6.103,4.408c-2.034-0.678-3.052-4.069-1.695-7.46
		c1.356-3.052,4.069-5.086,6.103-4.408C282.391,40.237,283.07,43.628,281.713,46.68z"/>
	<path style="fill:#FFD05B;" d="M226.105,46.68c1.356,3.052,4.069,5.086,6.103,4.408c2.034-0.678,3.052-4.069,1.695-7.46
		c-1.356-3.052-4.069-5.086-6.103-4.408C225.427,40.237,224.749,43.628,226.105,46.68z"/>
</g>
<path style="fill:#324A5E;" d="M233.226,12.433c0,0,20.344-30.517,48.826,4.069l-3.052-1.017c0,0,5.425,5.764,0.678,25.091
	c0,0-3.052,0.339-4.069,7.121c0,0-0.678-15.936-4.747-18.988c0,0-26.787,1.695-33.568-4.408c0,0-6.781,11.189-4.069,26.787
	c0,0-5.086-9.833-7.799-15.258c-2.034-3.73-3.052-7.799-3.052-12.207C223.054,18.536,225.088,12.433,233.226,12.433z"/>
<g>
	<path style="fill:#2B3B4E;" d="M302.397,492.899h-28.821v11.868c0,2.034,1.695,3.73,3.73,3.73h38.654v-1.695
		C315.96,499.003,309.856,492.899,302.397,492.899z"/>
	<path style="fill:#2B3B4E;" d="M206.1,492.899h28.821v11.868c0,2.034-1.695,3.73-3.73,3.73h-38.654v-1.695
		C192.537,499.003,198.64,492.899,206.1,492.899z"/>
</g>
<g>
	<path style="fill:#FFD05B;" d="M260.352,277.249l-29.838,3.052c-1.356,0-2.713-0.339-3.73-1.356
		c-0.339-0.339-0.678-0.678-0.678-1.356l-7.46-19.666c-0.678-1.695-1.695-3.052-3.052-4.408l-11.528-10.511l7.799-15.597
		l21.701,15.936l9.494,6.442l-2.373,4.408l-7.121-2.034l2.034,10.511l1.017,5.425l23.057,0.678c1.017,0,2.034,0.339,2.713,1.017
		C265.438,272.163,263.742,276.91,260.352,277.249z"/>
	<path style="fill:#FFD05B;" d="M242.72,254.531l-2.034-0.678l2.373-4.408l1.356,1.017
		C246.789,251.819,245.432,255.209,242.72,254.531z"/>
</g>
<path style="fill:#CED5E0;" d="M170.836,212.147c-0.678,7.799,2.374,15.597,7.799,21.023c5.086,5.425,12.885,12.207,23.057,18.649
	c4.747,3.052,10.172,6.103,16.275,9.155l9.833-27.126l-23.057-15.597l-10.511-7.121l8.477-27.126
	c-3.73-36.281-11.868-70.527-11.868-70.527S175.244,149.08,170.836,212.147z"/>
<g>
	
		<rect x="259.59" y="258.079" transform="matrix(0.8696 0.4938 -0.4938 0.8696 176.7765 -96.5248)" style="fill:#FFFFFF;" width="23.057" height="56.626"/>
	<path style="fill:#FFFFFF;" d="M274.254,253.514l-7.46,12.546c5.425,5.086,3.391,16.954-6.442,16.954c-1.017,0-2.034,0-3.052-0.339
		l-11.189,20.005l20.005,11.528l27.804-49.166L274.254,253.514z"/>
</g>
<path style="fill:#FF7058;" d="M290.19,260.974l-29.499,52.556l-36.281-20.683c-2.374-1.356-3.391-4.408-2.034-6.781l4.069-7.46
	c1.017,1.017,2.374,1.695,3.73,1.356l29.838-3.052c3.73-0.339,5.086-4.747,2.374-7.121c-0.678-0.678-1.695-1.017-2.713-1.017
	l-23.057-0.678l-1.017-5.425l11.528-20.344c1.356-2.374,4.408-3.391,6.781-2.034L290.19,260.974z"/>
<rect x="248.484" y="102.287" style="fill:#CED5E0;" width="11.528" height="33.907"/>
<path style="fill:#FFFFFF;" d="M270.863,83.638c-2.713,11.528-12.546,16.954-16.954,18.649c-4.069-1.695-13.902-7.121-16.954-18.649
	c0,0-7.46,7.46,2.034,28.821c0,0,8.477-9.494,14.919-9.833c6.442,0.339,14.919,9.833,14.919,9.833
	C278.323,91.098,270.863,83.638,270.863,83.638z"/>
<g>
	<circle style="fill:#324A5E;" cx="254.248" cy="116.868" r="2.713"/>
	<circle style="fill:#324A5E;" cx="254.248" cy="128.735" r="2.713"/>
</g>
</svg>